<?xml version="1.0" standalone="no"?><!DOCTYPE svg PUBLIC "-//W3C//DTD SVG 1.1//EN" "http://www.w3.org/Graphics/SVG/1.1/DTD/svg11.dtd"><svg t="1632984141230" class="icon" viewBox="0 0 1024 1024" version="1.1" xmlns="http://www.w3.org/2000/svg" p-id="4005" xmlns:xlink="http://www.w3.org/1999/xlink" width="200" height="200"><defs><style type="text/css"></style></defs><path d="M202.666667 853.333333v42.666667a32 32 0 1 1-64 0v-42.666667A245.333333 245.333333 0 0 1 384 608h256A245.333333 245.333333 0 0 1 885.333333 853.333333v42.666667a32 32 0 0 1-64 0v-42.666667A181.333333 181.333333 0 0 0 640 672H384A181.333333 181.333333 0 0 0 202.666667 853.333333zM512 85.333333a213.333333 213.333333 0 1 1 0 426.666667 213.333333 213.333333 0 0 1 0-426.666667z m0 64a149.333333 149.333333 0 1 0 0 298.666667 149.333333 149.333333 0 0 0 0-298.666667z" fill="#000000" p-id="4006"></path></svg>