<?xml version="1.0" standalone="no"?><!DOCTYPE svg PUBLIC "-//W3C//DTD SVG 1.1//EN" "http://www.w3.org/Graphics/SVG/1.1/DTD/svg11.dtd"><svg t="1632984246687" class="icon" viewBox="0 0 1024 1024" version="1.1" xmlns="http://www.w3.org/2000/svg" p-id="4141" xmlns:xlink="http://www.w3.org/1999/xlink" width="200" height="200"><defs><style type="text/css"></style></defs><path d="M512 96a202.752 202.752 0 0 1 196.266667 152.021333 32 32 0 0 1-61.952 15.957334A138.752 138.752 0 0 0 373.333333 298.666667v42.666666H725.333333a128 128 0 0 1 128 128v341.333334a128 128 0 0 1-128 128H298.666667a128 128 0 0 1-128-128v-341.333334a128 128 0 0 1 128-128h10.666666V298.666667A202.666667 202.666667 0 0 1 512 96z m213.333333 309.333333H298.666667a64 64 0 0 0-63.701334 57.856L234.666667 469.333333v341.333334a64 64 0 0 0 57.856 63.701333L298.666667 874.666667h426.666666a64 64 0 0 0 63.701334-57.856L789.333333 810.666667v-341.333334a64 64 0 0 0-57.856-63.701333L725.333333 405.333333z" fill="#000000" p-id="4142"></path><path d="M512 512a85.333333 85.333333 0 0 1 38.144 161.706667l-6.144 2.773333V725.333333a32 32 0 0 1-63.701333 4.352L480 725.333333v-48.853333A85.333333 85.333333 0 0 1 512 512z m0 64a21.333333 21.333333 0 1 0 0 42.666667 21.333333 21.333333 0 0 0 0-42.666667z" fill="#000000" p-id="4143"></path></svg>